<svg xmlns="http://www.w3.org/2000/svg" xmlns:xlink="http://www.w3.org/1999/xlink" version="1.1" x="0px" y="0px" viewBox="0 0 512 640" style="enable-background:new 0 0 512 512;" xml:space="preserve"><g><circle cx="159.18" cy="459.1" r="23.18"/><circle cx="352.82" cy="459.1" r="23.18"/><path d="M451.16,275.22c-4.71-4.77-7.31-11.08-7.31-17.78v-55.4c0-7.66-2.21-15.1-6.38-21.52l-12.44-19.13v-18.21   c0-72.06-58.62-130.68-130.68-130.68h-76.71c-72.06,0-130.68,58.62-130.68,130.68v18.21l-12.44,19.13   c-4.17,6.42-6.38,13.86-6.38,21.52v55.4c0,6.7-2.6,13.02-7.31,17.78l-22.15,22.39c-17.94,18.13-18.94,47.46-2.28,66.77l30.8,35.71   c3.17,3.67,5.2,8.15,5.89,12.96l4.76,33.53c2.47,17.4,14.32,31.78,30.93,37.54l36.89,12.79c4.96,1.72,10.13,2.57,15.28,2.57   c7.9,0,15.76-2,22.79-5.93c8.71-4.87,15.56-12.37,19.65-21.3l19.42,10.23c10.39,5.47,21.79,8.21,33.19,8.21s22.8-2.74,33.19-8.21   l19.42-10.23c4.09,8.93,10.95,16.43,19.65,21.3c11.62,6.5,25.49,7.72,38.07,3.36l36.89-12.79c16.61-5.75,28.46-20.14,30.93-37.54   l4.76-33.53c0.68-4.8,2.72-9.28,5.89-12.96l30.8-35.71c16.66-19.31,15.65-48.64-2.28-66.77L451.16,275.22z M93.4,164.34   c0.37-0.57,0.57-1.23,0.57-1.91v-19.25c0-68.2,55.48-123.68,123.68-123.68h76.71c68.2,0,123.68,55.48,123.68,123.68v19.25   c0,0.68,0.2,1.34,0.57,1.91l1.61,2.48l-3.29,1.9c-8.95,5.16-19.15,7.88-29.48,7.88H124.56c-10.33,0-20.53-2.72-29.48-7.88   l-3.29-1.9L93.4,164.34z M80.4,184.34l7.57-11.64l3.62,2.08c10.01,5.77,21.42,8.81,32.97,8.81h262.88   c11.56,0,22.96-3.05,32.97-8.81l3.62-2.09l7.57,11.64c1.28,1.97,2.33,4.05,3.15,6.22l-4.23,2.43c-8.95,5.16-19.15,7.88-29.48,7.88   h-290.1c-10.33,0-20.53-2.72-29.48-7.88l-4.23-2.43C78.07,188.39,79.12,186.3,80.4,184.34z M431.98,412.06l-4.76,33.53   c-2.1,14.79-12.18,27.02-26.29,31.91l-36.89,12.79c-10.69,3.7-22.48,2.66-32.36-2.86c-9.87-5.52-16.94-15.02-19.38-26.07   l-4.15-18.79c-5.45-24.66-26.89-41.88-52.15-41.88c-25.25,0-46.7,17.22-52.15,41.88l-4.15,18.79   c-2.44,11.05-9.51,20.55-19.38,26.07c-9.87,5.52-21.67,6.56-32.36,2.86l-36.89-12.79c-14.12-4.89-24.19-17.12-26.29-31.91   l-4.76-33.53c-0.16-1.13-0.4-2.24-0.68-3.34l30.97-14.89c12.47-5.99,22.34-16.68,27.38-29.53c2.43-0.38,4.83-1.19,7.07-2.47   l17.92-10.24l12.49,4.64c8.26,3.07,17.43,3.28,25.81,0.58l40.71-13.06c9.37-3.01,19.27-3.01,28.63,0l40.71,13.06   c3.89,1.25,8,1.88,12.1,1.88c1.83,0,3.67-0.13,5.48-0.38c1.91-0.27,3.25-2.04,2.98-3.96c-0.27-1.91-2.03-3.25-3.96-2.98   c-4.82,0.68-9.82,0.25-14.46-1.23l-40.71-13.06c-10.77-3.45-22.15-3.45-32.91,0l-40.71,13.06c-6.9,2.21-14.44,2.05-21.24-0.48   l-7.01-2.61l69.29-39.61c9.94-5.68,22.3-5.68,32.24,0l95.12,54.38c2.24,1.28,4.64,2.09,7.07,2.47   c5.04,12.85,14.91,23.54,27.37,29.53l30.97,14.89C432.38,409.82,432.15,410.93,431.98,412.06z M470.3,359.81l-30.8,35.71   c-1.75,2.03-3.21,4.25-4.39,6.62l-30.38-14.61c-10.1-4.86-18.25-13.24-22.89-23.39c5.2-1.06,9.99-4.05,13.16-8.7l30.21-44.37   c6.97-10.23,8.73-23.32,4.72-35.03c-0.63-1.83-2.62-2.8-4.45-2.18c-1.83,0.63-2.8,2.62-2.18,4.45c3.3,9.63,1.85,20.4-3.88,28.82   l-30.21,44.37c-4.08,5.99-12.2,7.86-18.49,4.27l-95.12-54.38c-12.09-6.91-27.1-6.91-39.19,0l-95.12,54.38   c-6.29,3.6-14.41,1.72-18.49-4.27l-30.21-44.37c-5.73-8.42-7.18-19.19-3.88-28.82c0.63-1.83-0.35-3.82-2.18-4.45   c-1.83-0.63-3.82,0.35-4.45,2.18c-4.01,11.71-2.25,24.8,4.71,35.03L117,355.43c3.17,4.65,7.96,7.63,13.16,8.69   c-4.64,10.15-12.79,18.55-22.89,23.4l-30.38,14.61c-1.19-2.36-2.65-4.59-4.39-6.62l-30.8-35.71   c-14.29-16.56-13.43-41.72,1.96-57.27l22.15-22.39c6.02-6.08,9.34-14.15,9.34-22.71v-55.4c0-1.49,0.11-2.97,0.31-4.44l2.52,1.45   c5.21,3,10.8,5.26,16.59,6.74v36.38c0,5.41,1.22,10.75,3.57,15.63l9.01,18.68c2.41,5,8.35,7.18,13.42,4.94l120.86-53.52   c9.28-4.11,19.86-4.11,29.14,0l120.86,53.52c5.07,2.25,11.01,0.06,13.42-4.94l9.01-18.68c2.35-4.87,3.57-10.22,3.57-15.63v-36.38   c5.79-1.48,11.38-3.74,16.59-6.74l2.52-1.45c0.2,1.46,0.31,2.94,0.31,4.44v55.4c0,8.56,3.32,16.62,9.33,22.71l22.16,22.39   C483.73,318.09,484.59,343.24,470.3,359.81z"/><path d="M56.74,313.36c-1.8,0.72-2.67,2.75-1.95,4.55c7.72,19.36,18.6,37.12,32.34,52.8c0.69,0.79,1.66,1.19,2.63,1.19   c0.82,0,1.64-0.29,2.31-0.87c1.45-1.27,1.6-3.49,0.32-4.94c-13.21-15.07-23.68-32.16-31.11-50.78   C60.57,313.52,58.53,312.64,56.74,313.36z"/><path d="M455.26,313.36c-1.8-0.72-3.83,0.16-4.55,1.95c-7.43,18.62-17.89,35.71-31.11,50.78c-1.27,1.45-1.13,3.67,0.32,4.94   c0.67,0.58,1.49,0.87,2.31,0.87c0.97,0,1.94-0.4,2.63-1.19c13.74-15.67,24.62-33.44,32.34-52.8   C457.93,316.11,457.06,314.07,455.26,313.36z"/><path d="M454.49,81.55c0.78,0,1.56-0.26,2.21-0.79l20.19-16.45c1.5-1.22,1.72-3.43,0.5-4.92c-1.22-1.5-3.43-1.72-4.92-0.5   l-20.19,16.45c-1.5,1.22-1.72,3.43-0.5,4.92C452.47,81.11,453.47,81.55,454.49,81.55z"/><path d="M496.8,158.24l-25.34-5.99c-1.88-0.44-3.77,0.72-4.21,2.6c-0.44,1.88,0.72,3.77,2.6,4.21l25.34,5.99   c0.27,0.06,0.54,0.09,0.81,0.09c1.59,0,3.02-1.09,3.4-2.7C499.85,160.57,498.69,158.69,496.8,158.24z"/><path d="M44.2,153.6c-0.58-1.84-2.54-2.88-4.38-2.3l-24.86,7.76c-1.85,0.58-2.87,2.54-2.3,4.38c0.47,1.5,1.85,2.46,3.34,2.46   c0.35,0,0.7-0.05,1.04-0.16l24.86-7.76C43.74,157.41,44.77,155.45,44.2,153.6z"/><path d="M31.4,64.47l21.3,14.98c0.61,0.43,1.31,0.64,2.01,0.64c1.1,0,2.18-0.52,2.87-1.49c1.11-1.58,0.73-3.76-0.85-4.88   l-21.3-14.98c-1.58-1.11-3.76-0.73-4.88,0.85C29.44,61.17,29.82,63.35,31.4,64.47z"/></g><text x="0" y="527" fill="#000000" font-size="5px" font-weight="bold" font-family="'Helvetica Neue', Helvetica, Arial-Unicode, Arial, Sans-serif">Created by iconfield</text><text x="0" y="532" fill="#000000" font-size="5px" font-weight="bold" font-family="'Helvetica Neue', Helvetica, Arial-Unicode, Arial, Sans-serif">from the Noun Project</text></svg>